<svg width="469" height="470" viewBox="0 0 469 470" fill="none" xmlns="http://www.w3.org/2000/svg">
<path d="M181.34 428.322C182.075 423.922 183.504 420.251 185.627 417.311C187.751 414.371 190.344 412.263 193.404 410.987C196.465 409.711 199.774 409.37 203.333 409.964C206.891 410.558 209.91 411.955 212.391 414.156C214.871 416.356 216.639 419.192 217.693 422.662C218.747 426.133 218.907 430.068 218.173 434.468C217.438 438.869 216.009 442.539 213.885 445.479C211.762 448.419 209.169 450.527 206.109 451.803C203.048 453.079 199.738 453.42 196.18 452.826C192.622 452.233 189.602 450.835 187.122 448.635C184.642 446.434 182.874 443.598 181.82 440.128C180.766 436.658 180.606 432.722 181.34 428.322ZM186.229 429.138C185.627 432.75 185.722 435.9 186.516 438.587C187.297 441.272 188.606 443.424 190.443 445.043C192.268 446.659 194.443 447.679 196.969 448.1C199.495 448.522 201.89 448.265 204.154 447.331C206.404 446.394 208.341 444.784 209.964 442.5C211.574 440.214 212.681 437.265 213.283 433.652C213.886 430.04 213.797 426.891 213.017 424.206C212.223 421.519 210.914 419.367 209.09 417.751C207.252 416.132 205.07 415.112 202.544 414.69C200.018 414.269 197.63 414.526 195.379 415.463C193.116 416.397 191.179 418.007 189.569 420.293C187.945 422.577 186.832 425.525 186.229 429.138Z" fill="#6216FF"/>
<path d="M165.623 387.223L144.862 425.586L140.72 423.345L143.119 418.913L142.61 418.637C142.033 418.951 141.263 419.333 140.3 419.782C139.318 420.237 138.139 420.476 136.765 420.5C135.371 420.528 133.766 420.051 131.95 419.068C129.601 417.797 127.848 416.089 126.691 413.944C125.535 411.8 125.037 409.378 125.199 406.679C125.36 403.979 126.234 401.164 127.82 398.234C129.419 395.279 131.307 392.99 133.485 391.366C135.657 389.755 137.954 388.837 140.376 388.614C142.792 388.402 145.162 388.926 147.487 390.184C149.28 391.154 150.554 392.227 151.311 393.404C152.061 394.593 152.52 395.726 152.688 396.803C152.85 397.893 152.951 398.777 152.991 399.456L153.354 399.653L161.336 384.903L165.623 387.223ZM148.197 409.355C149.337 407.248 150.034 405.222 150.288 403.278C150.536 401.345 150.312 399.603 149.617 398.053C148.915 396.515 147.704 395.28 145.985 394.349C144.193 393.38 142.441 393.043 140.731 393.338C139.003 393.64 137.4 394.432 135.923 395.715C134.427 397.003 133.142 398.64 132.067 400.626C131.005 402.588 130.351 404.52 130.105 406.422C129.84 408.329 130.064 410.071 130.777 411.646C131.471 413.228 132.726 414.51 134.543 415.493C136.286 416.436 137.991 416.787 139.656 416.546C141.315 416.316 142.873 415.578 144.33 414.331C145.781 413.097 147.07 411.438 148.197 409.355Z" fill="#6216FF"/>
<path d="M102.617 354.797C104.687 357.046 105.977 359.443 106.486 361.987C106.975 364.532 106.729 367.07 105.747 369.602C104.746 372.133 103.05 374.499 100.659 376.699C98.2682 378.9 95.7601 380.404 93.1347 381.212C90.4898 382.018 87.933 382.108 85.4644 381.479C82.9763 380.85 80.7624 379.482 78.8227 377.375C77.7037 376.159 76.8012 374.772 76.1153 373.214C75.4294 371.656 75.0947 369.971 75.1112 368.159C75.1175 366.357 75.5995 364.481 76.5571 362.533C77.5147 360.585 79.0825 358.608 81.2605 356.603L82.78 355.204L99.3422 373.195L96.2423 376.049L83.0374 361.705C81.7204 362.917 80.7878 364.262 80.2394 365.74C79.6817 367.208 79.547 368.698 79.8353 370.211C80.1142 371.713 80.8505 373.113 82.0441 374.409C83.359 375.838 84.8513 376.747 86.521 377.138C88.1712 377.528 89.8149 377.484 91.4523 377.006C93.0896 376.528 94.5516 375.697 95.8381 374.512L97.9047 372.61C99.6674 370.987 100.882 369.308 101.548 367.572C102.195 365.835 102.334 364.125 101.965 362.444C101.586 360.771 100.729 359.211 99.3958 357.762C98.5285 356.82 97.6135 356.091 96.6507 355.573C95.6684 355.055 94.6524 354.765 93.6026 354.702C92.5427 354.648 91.4676 354.842 90.3774 355.285L88.1606 350.925C89.6714 350.208 91.2689 349.869 92.953 349.91C94.627 349.959 96.2951 350.389 97.9571 351.198C99.6091 352.017 101.162 353.216 102.617 354.797Z" fill="#6216FF"/>
<path d="M55.8261 320.963L73.3026 313.297L75.2606 317.761L46.2087 330.505L44.3171 326.192L48.8564 324.201L48.6905 323.823C46.9165 323.789 45.2777 323.275 43.7741 322.281C42.2578 321.292 41.0184 319.7 40.0561 317.506C39.1932 315.539 38.8417 313.641 39.0016 311.812C39.1489 309.988 39.8561 308.31 41.1232 306.777C42.3776 305.249 44.2406 303.943 46.712 302.859L65.1721 294.762L67.1301 299.225L48.9726 307.19C46.6903 308.191 45.1724 309.564 44.4187 311.308C43.6525 313.057 43.7229 314.966 44.63 317.034C45.255 318.458 46.1225 319.597 47.2327 320.448C48.3372 321.286 49.6232 321.767 51.0906 321.89C52.5579 322.014 54.1364 321.705 55.8261 320.963Z" fill="#6216FF"/>
<path d="M53.3781 187.875C52.9691 189.49 52.2019 190.866 51.0764 192.001C49.9375 193.133 48.5993 193.93 47.0617 194.393C45.5275 194.843 43.9528 194.863 42.3378 194.454C40.7093 194.042 39.3341 193.274 38.2121 192.152C37.0802 191.013 36.2894 189.677 35.8399 188.142C35.3771 186.605 35.3501 185.029 35.7591 183.414C36.1715 181.785 36.9454 180.412 38.0809 179.293C39.2065 178.158 40.5363 177.365 42.0705 176.916C43.5948 176.449 45.1711 176.422 46.7995 176.835C48.4146 177.244 49.7881 178.018 50.9201 179.157C52.0554 180.282 52.8545 181.614 53.3174 183.151C53.7703 184.672 53.7905 186.247 53.3781 187.875Z" fill="#6216FF"/>
<path d="M114.708 100.961L88.7276 67.5814L108.742 52.0033L111.533 55.589L95.5605 68.021L104.339 79.2997L118.812 68.0347L121.603 71.6204L107.13 82.8853L118.75 97.8148L114.708 100.961Z" fill="#6216FF"/>
<path d="M176.057 66.2852C173.348 67.2151 170.75 67.3864 168.262 66.799C165.788 66.2072 163.58 64.949 161.638 63.0243C159.71 61.0952 158.213 58.5809 157.149 55.4814C156.076 52.3559 155.706 49.4331 156.039 46.713C156.385 43.9884 157.352 41.6328 158.941 39.6461C160.543 37.6549 162.698 36.1943 165.407 35.2644C168.116 34.3344 170.707 34.1654 173.182 34.7572C175.669 35.3446 177.879 36.6093 179.812 38.5515C181.759 40.4892 183.268 43.0208 184.341 46.1463C185.405 49.2458 185.762 52.1513 185.412 54.8628C185.075 57.5699 184.105 59.919 182.503 61.9102C180.914 63.8969 178.765 65.3553 176.057 66.2852ZM174.635 62.1439C176.692 61.4375 178.204 60.3289 179.171 58.818C180.137 57.3071 180.644 55.5826 180.692 53.6445C180.74 51.7064 180.42 49.7345 179.731 47.729C179.043 45.7235 178.082 43.9642 176.849 42.4512C175.616 40.9382 174.153 39.8758 172.458 39.2639C170.763 38.652 168.886 38.6993 166.829 39.4057C164.771 40.1121 163.261 41.2272 162.3 42.7511C161.338 44.275 160.835 46.0126 160.792 47.9637C160.748 49.9148 161.071 51.8932 161.759 53.8987C162.448 55.9043 163.406 57.657 164.634 59.157C165.863 60.657 167.322 61.7064 169.013 62.3052C170.703 62.904 172.577 62.8503 174.635 62.1439Z" fill="#6216FF"/>
<path d="M226.789 56V24.2761L231.498 24.2761V29.0677H231.828C232.407 27.498 233.453 26.2244 234.968 25.2468C236.482 24.2692 238.19 23.7804 240.09 23.7804C240.448 23.7804 240.895 23.7873 241.432 23.801C241.969 23.8148 242.375 23.8355 242.651 23.863V28.8199C242.485 28.7786 242.107 28.7166 241.515 28.634C240.936 28.5376 240.324 28.4894 239.677 28.4894C238.134 28.4894 236.758 28.813 235.546 29.4601C234.348 30.0935 233.398 30.9747 232.696 32.1038C232.007 33.2191 231.663 34.4927 231.663 35.9247V56H226.789Z" fill="#6216FF"/>
<path d="M349.019 88.1356C347.704 87.1123 346.753 85.8572 346.165 84.3705C345.586 82.8728 345.393 81.327 345.587 79.733C345.792 78.1474 346.406 76.6973 347.429 75.3825C348.461 74.0569 349.716 73.1057 351.194 72.529C352.692 71.9498 354.233 71.7626 355.819 71.9672C357.413 72.161 358.867 72.7695 360.182 73.7928C361.508 74.8246 362.455 76.0851 363.023 77.5743C363.611 79.0611 363.802 80.5973 363.597 82.1828C363.412 83.7659 362.804 85.2203 361.772 86.5459C360.749 87.8607 359.488 88.8076 357.99 89.3868C356.504 89.9744 354.963 90.1713 353.369 89.9775C351.795 89.7814 350.344 89.1674 349.019 88.1356Z" fill="#6216FF"/>
<path d="M403.474 177.229L441.639 155.633L442.917 160.678L411.691 177.704L411.792 178.105L447.399 178.377L448.818 183.983L417.633 201.17L417.734 201.57L453.3 201.682L454.578 206.728L410.734 205.899L409.436 200.774L439.82 183.45L439.739 183.129L404.772 182.354L403.474 177.229Z" fill="#6216FF"/>
<path d="M411.089 249.323C411.325 246.468 412.212 244.02 413.749 241.979C415.285 239.951 417.324 238.434 419.867 237.429C422.408 236.437 425.312 236.077 428.578 236.348C431.871 236.62 434.696 237.456 437.053 238.853C439.41 240.264 441.178 242.096 442.359 244.349C443.539 246.616 444.011 249.177 443.775 252.031C443.538 254.885 442.652 257.326 441.116 259.354C439.579 261.396 437.533 262.912 434.978 263.903C432.421 264.907 429.497 265.272 426.203 264.999C422.938 264.729 420.133 263.888 417.791 262.478C415.447 261.082 413.686 259.251 412.506 256.984C411.324 254.73 410.852 252.177 411.089 249.323ZM415.452 249.684C415.273 251.852 415.681 253.682 416.676 255.174C417.672 256.666 419.047 257.823 420.803 258.645C422.558 259.468 424.493 259.967 426.606 260.142C428.719 260.317 430.716 260.144 432.597 259.623C434.478 259.101 436.039 258.188 437.28 256.881C438.521 255.575 439.231 253.838 439.411 251.669C439.591 249.501 439.176 247.671 438.167 246.178C437.157 244.685 435.768 243.527 433.999 242.703C432.229 241.88 430.288 241.38 428.175 241.205C426.062 241.03 424.072 241.204 422.205 241.726C420.338 242.248 418.79 243.163 417.563 244.471C416.335 245.778 415.632 247.516 415.452 249.684Z" fill="#6216FF"/>
<path d="M400.128 299.914L429.18 312.657L427.288 316.97L422.9 315.045L422.767 315.348C423.972 316.508 424.718 317.978 425.005 319.757C425.292 321.537 425.054 323.297 424.291 325.037C424.147 325.365 423.961 325.772 423.732 326.258C423.504 326.745 423.322 327.108 423.186 327.349L418.647 325.358C418.751 325.223 418.96 324.902 419.273 324.393C419.594 323.902 419.884 323.36 420.144 322.767C420.764 321.355 421.02 319.964 420.915 318.595C420.816 317.243 420.39 316.019 419.638 314.923C418.894 313.844 417.866 313.017 416.554 312.442L398.17 304.378L400.128 299.914Z" fill="#6216FF"/>
<path d="M377.957 358.712L382.45 362.736L381.778 363.465L382.772 383.245L378.687 387.682L377.701 366.674L377.981 366.37L377.957 358.712ZM372.525 347.536L403.645 376.184L400.344 379.77L369.224 351.122L372.525 347.536ZM358.872 362.366L378.814 363.88L378.956 368.727L354.676 366.925L358.872 362.366Z" fill="#6216FF"/>
<path d="M263.474 418.549C265.118 418.274 266.685 418.425 268.177 418.999C269.671 419.587 270.939 420.493 271.981 421.715C273.009 422.939 273.66 424.373 273.934 426.016C274.21 427.673 274.06 429.241 273.483 430.719C272.895 432.213 271.989 433.474 270.764 434.502C269.542 435.544 268.109 436.202 266.466 436.476C264.809 436.752 263.24 436.595 261.76 436.005C260.268 435.43 259.008 434.531 257.98 433.306C256.941 432.098 256.283 430.665 256.007 429.008C255.732 427.365 255.889 425.796 256.478 424.302C257.052 422.81 257.951 421.543 259.173 420.502C260.384 419.476 261.818 418.825 263.474 418.549Z" fill="#6216FF"/>
</svg>
