<svg width="39" height="39" viewBox="0 0 39 39" fill="none" xmlns="http://www.w3.org/2000/svg">
<path fill-rule="evenodd" clip-rule="evenodd" d="M38.7395 13.0597C38.7395 10.4874 37.8025 8.38356 36.2471 6.73551C36.4968 6.13833 37.3284 3.74119 36.0066 0.497854C36.0066 0.497854 33.9724 -0.135196 29.3406 2.91401C27.4049 2.39067 25.3295 2.12902 23.2678 2.12058C21.2062 2.12902 19.1308 2.39067 17.1974 2.91401C12.5632 -0.135196 10.5268 0.497854 10.5268 0.497854C9.205 3.74119 10.0388 6.13833 10.2885 6.73551C8.7354 8.38356 7.79163 10.4874 7.79163 13.0597C7.79163 22.0912 13.4543 24.1127 18.8398 24.7078C18.8398 24.7078 14.9685 26.9171 14.9685 30.631C13.5872 31.2345 7.74123 33.083 5.57648 29.481C5.57648 29.481 4.29595 27.2189 1.86092 27.0522C1.86092 27.0522 -0.507716 27.0226 1.69369 28.485C1.69369 28.485 3.28346 29.2109 4.38759 31.933C4.38759 31.933 5.61542 37.6684 14.8906 35.0919C14.9845 35.1362 14.925 37.8668 14.925 38.426H31.6153C31.6153 38.426 31.6427 32.9459 31.6427 31.2029C31.6427 26.9171 28.5365 25.4168 27.6637 24.6888C33.0676 24.1064 38.7395 22.1144 38.7395 13.0597Z" fill="#999999"/>
</svg>
