<svg width="42" height="39" viewBox="0 0 42 39" fill="none" xmlns="http://www.w3.org/2000/svg">
<path fill-rule="evenodd" clip-rule="evenodd" d="M41.5151 38.4041H33.2121V25.1092C33.2121 21.4622 31.4539 19.4274 28.3009 19.4274C24.8696 19.4274 22.8333 21.5476 22.8333 25.1092V38.4041H14.5303V13.7102H22.8333V16.4872C22.8333 16.4872 25.4384 12.3042 31.3086 12.3042C37.1809 12.3042 41.5151 15.5834 41.5151 22.3685V38.4041ZM5.069 9.76094C2.2688 9.76094 0 7.66778 0 5.08633C0 2.50678 2.2688 0.413574 5.069 0.413574C7.86712 0.413574 10.1359 2.50678 10.1359 5.08633C10.138 7.66778 7.86712 9.76094 5.069 9.76094ZM0 38.4041H10.3788V13.7102H0V38.4041Z" fill="#999999"/>
</svg>
