<svg width="34" height="39" viewBox="0 0 34 39" fill="none" xmlns="http://www.w3.org/2000/svg">
<path d="M3.72825 2.10517C0.749981 3.79777 0.16491 9.08855 1.28934 13.4007C2.16504 16.7587 4.02684 21.2633 7.1663 25.505C10.1197 29.4954 14.2401 33.0735 17.3819 35.1437C21.4164 37.8019 27.1679 39.4915 30.1461 37.7989C31.6521 36.943 33.8895 34.6047 33.9916 34.1851C33.9916 34.1851 32.6796 32.4124 32.3917 32.0233L27.9918 26.0785C27.6649 25.6368 25.6145 26.0406 24.5728 26.5576C23.1678 27.2552 21.8738 29.127 21.8738 29.127C20.9104 29.6148 20.1034 29.1288 18.4173 28.4488C16.3452 27.6134 14.0154 25.0175 12.1611 22.6663C10.4675 20.224 8.71283 17.3012 8.68743 15.3025C8.66652 13.6762 8.48925 12.8324 9.39043 12.2605C9.39043 12.2605 11.8685 11.9885 13.1685 11.1489C14.132 10.5263 15.3889 9.05049 15.0619 8.60864L10.6621 2.66393C10.3742 2.2749 9.06213 0.502184 9.06213 0.502184C8.58322 0.412792 5.23423 1.2493 3.72825 2.10517Z" fill="#999999"/>
</svg>
