<svg width="86" height="86" viewBox="0 0 86 86" fill="none" xmlns="http://www.w3.org/2000/svg">
<path d="M43 3V7.44444ZM43 78.5556V83ZM7.44444 43H3ZM17.7294 17.7294L14.1111 14.1111ZM68.2707 17.7294L71.8889 14.1111ZM17.7294 68.2889L14.1111 71.8893ZM68.2707 68.2889L71.8889 71.8893ZM83 43H78.5556ZM60.7778 43C60.7778 52.8182 52.8182 60.7778 43 60.7778C33.1816 60.7778 25.2222 52.8182 25.2222 43C25.2222 33.1816 33.1816 25.2222 43 25.2222C52.8182 25.2222 60.7778 33.1816 60.7778 43Z" fill="#F4D839"/>
<path d="M43 3V7.44444M43 78.5556V83M7.44444 43H3M17.7294 17.7294L14.1111 14.1111M68.2707 17.7294L71.8889 14.1111M17.7294 68.2889L14.1111 71.8893M68.2707 68.2889L71.8889 71.8893M83 43H78.5556M60.7778 43C60.7778 52.8182 52.8182 60.7778 43 60.7778C33.1816 60.7778 25.2222 52.8182 25.2222 43C25.2222 33.1816 33.1816 25.2222 43 25.2222C52.8182 25.2222 60.7778 33.1816 60.7778 43Z" stroke="black" stroke-width="5" stroke-linecap="round" stroke-linejoin="round"/>
</svg>
